<?xml version="1.0" encoding="utf-8"?>
<!-- Generator: Adobe Illustrator 25.0.1, SVG Export Plug-In . SVG Version: 6.00 Build 0)  -->
<svg version="1.1" id="Capa_1" xmlns="http://www.w3.org/2000/svg" xmlns:xlink="http://www.w3.org/1999/xlink" x="0px" y="0px"
	 viewBox="0 0 234 325.03" style="enable-background:new 0 0 234 325.03;" xml:space="preserve">
<style type="text/css">
	.st0{fill:#3F3E3E;}
	.st1{fill:#7E235F;}
	.st2{fill:#272425;}
	.st3{fill:#FDFCFF;}
	.st4{fill:#9DC44D;}
	.st5{fill:#EEC130;}
	.st6{fill:#FFFFFF;}
	.st7{fill:#CB2228;}
	.st8{fill:#C6D65C;}
	.st9{fill:#FCF69C;}
	.st10{fill:#F4D84C;}
	.st11{fill:#F9EB9A;}
	.st12{fill:#F5DB34;}
	.st13{fill:#70236E;}
	.st14{fill:#5DA357;}
	.st15{fill:#A57D37;}
	.st16{fill:#B1B1B0;}
	.st17{fill:#ECECEC;}
	.st18{fill:#A48036;}
	.st19{fill:#A1C54C;}
	.st20{fill:#819D49;}
	.st21{fill:#BBD268;}
	.st22{fill:#D25A2B;}
	.st23{fill:#EAB850;}
	.st24{fill:#D8AF32;}
	.st25{fill:#DFC444;}
	.st26{fill:#CAAF32;}
	.st27{fill:#FFFFFF;stroke:#3F3E3E;stroke-width:2;stroke-miterlimit:10;}
	.st28{fill:#585857;}
	.st29{fill:#D9D9D9;}
	.st30{fill:#B29638;}
	.st31{fill:none;stroke:#3F3E3E;stroke-width:2;stroke-miterlimit:10;}
</style>
<g>
	<g>
		<path class="st0" d="M72.66,167.9c-18.02,0-32.69-14.66-32.69-32.69s14.66-32.69,32.69-32.69s32.69,14.66,32.69,32.69
			S90.69,167.9,72.66,167.9z M72.66,110.23c-13.78,0-24.98,11.21-24.98,24.98s11.21,24.98,24.98,24.98s24.98-11.21,24.98-24.98
			S86.44,110.23,72.66,110.23z"/>
		<path class="st0" d="M161.34,167.9c-18.02,0-32.69-14.66-32.69-32.69s14.66-32.69,32.69-32.69s32.69,14.66,32.69,32.69
			S179.36,167.9,161.34,167.9z M161.34,110.23c-13.78,0-24.98,11.21-24.98,24.98s11.21,24.98,24.98,24.98s24.98-11.21,24.98-24.98
			S175.11,110.23,161.34,110.23z"/>
		<path class="st0" d="M101.67,131.86c4.34-3.07,9.63-4.88,15.34-4.88c5.71,0,11,1.81,15.33,4.88l4.59-5.61
			c-5.59-4.08-12.48-6.5-19.92-6.5c-7.44,0-14.33,2.42-19.92,6.5L101.67,131.86z"/>
	</g>
	<path class="st0" d="M117,0L117,0C72.08,0,35.34,36.75,35.34,81.66v18.79h105.66c4.33-5.25,6.93-11.98,6.93-19.32
		c0-4.91-1.17-9.55-3.24-13.66c6.13,5.56,9.97,13.58,9.97,22.51c0,3.68-0.65,7.2-1.85,10.47h45.86V81.66
		C198.66,36.75,161.92,0,117,0z"/>
	<g>
		<path class="st0" d="M192.41,131.17c0,16.86-5.66,32.47-15.15,45.02h21.41V96.85c0-7.48-2.31-14.44-6.26-20.21V131.17z"/>
		<path class="st0" d="M57.77,176.2c-9.5-12.56-15.15-28.16-15.15-45.02V75.22c-4.56,6.03-7.28,13.53-7.28,21.63v79.34H57.77z"/>
	</g>
</g>
<g>
	<path class="st31" d="M225.66,324.03H8.34c-3.85,0-7-3.15-7-7V183.2c0-3.85,3.15-7,7-7h217.32c3.85,0,7,3.15,7,7v133.83
		C232.66,320.88,229.51,324.03,225.66,324.03z"/>
	<g>
		<g>
			<g>
				<g>
					<polygon class="st0" points="107.98,238.54 115.41,202.97 127.59,238.74 120.78,243.33 					"/>
					<path class="st0" d="M120.78,244.67c-0.16,0-0.32-0.03-0.47-0.09l-12.8-4.78c-0.62-0.23-0.98-0.89-0.85-1.54l7.43-35.57
						c0.12-0.59,0.63-1.03,1.24-1.07c0.61-0.04,1.16,0.34,1.36,0.91l12.18,35.76c0.2,0.58-0.02,1.21-0.52,1.55l-6.81,4.59
						C121.3,244.59,121.04,244.67,120.78,244.67z M109.53,237.69l11.06,4.13l5.38-3.63l-10.26-30.13L109.53,237.69z"/>
				</g>
				<g>
					<path class="st0" d="M105.09,227.96c0,0-5.29-13.93-9.02-15.49c0,0,19.48,6.02,25.98,25.63l-6.01,4.9l-5.41-2.79L105.09,227.96
						z"/>
					<path class="st0" d="M116.04,244.35c-0.21,0-0.42-0.05-0.62-0.15l-5.41-2.79c-0.27-0.14-0.49-0.37-0.61-0.64l-5.53-12.26
						c-0.01-0.03-0.02-0.05-0.03-0.08c-2.11-5.56-6.08-13.8-8.28-14.73c-0.66-0.28-0.99-1.03-0.75-1.7
						c0.24-0.68,0.98-1.04,1.66-0.83c0.21,0.06,5.14,1.61,10.93,5.64c5.35,3.73,12.46,10.37,15.93,20.85
						c0.18,0.53,0.01,1.11-0.43,1.47l-6.01,4.9C116.64,244.25,116.34,244.35,116.04,244.35z M111.66,239.24l4.21,2.17l4.6-3.75
						c-3.32-9.24-9.7-15.18-14.54-18.56c-1.76-1.23-3.45-2.22-4.93-3c0.82,1.38,1.57,2.84,2.19,4.12c1.71,3.52,2.99,6.82,3.14,7.23
						L111.66,239.24z"/>
				</g>
				<g>
					<path class="st0" d="M106.42,240.33c0,0-2.89-11.37-13.23-13.71c0,0,14.91-2.9,23.81,10.81l-6.61,3.79L106.42,240.33z"/>
					<path class="st0" d="M110.39,242.57c-0.1,0-0.2-0.01-0.3-0.03l-3.97-0.89c-0.49-0.11-0.89-0.49-1.01-0.98
						c-0.03-0.1-2.83-10.6-12.22-12.73c-0.62-0.14-1.06-0.7-1.05-1.33c0.01-0.64,0.46-1.18,1.09-1.3c0.06-0.01,1.47-0.28,3.66-0.28
						c5.21,0,14.94,1.52,21.54,11.68c0.2,0.31,0.27,0.69,0.18,1.05c-0.09,0.36-0.32,0.67-0.64,0.85l-6.61,3.79
						C110.85,242.51,110.62,242.57,110.39,242.57z M107.48,239.19l2.69,0.6l4.89-2.8c-4.79-6.57-11.11-8.6-15.69-9.12
						C104.55,231.42,106.79,237.08,107.48,239.19z"/>
				</g>
				<g>
					<g>
						<path class="st0" d="M130.35,227.96c0,0,5.29-13.93,9.02-15.49c0,0-19.48,6.02-25.98,25.63l6.01,4.9l5.41-2.79L130.35,227.96z
							"/>
						<path class="st0" d="M119.41,244.35c-0.3,0-0.61-0.1-0.85-0.3l-6.01-4.9c-0.43-0.35-0.6-0.94-0.43-1.47
							c3.47-10.48,10.58-17.13,15.93-20.85c5.79-4.03,10.72-5.58,10.93-5.64c0.69-0.21,1.42,0.15,1.66,0.83
							c0.24,0.68-0.08,1.42-0.75,1.7c-2.2,0.92-6.17,9.17-8.28,14.73c-0.01,0.03-0.02,0.05-0.03,0.08l-5.53,12.26
							c-0.13,0.28-0.34,0.5-0.61,0.64l-5.41,2.79C119.83,244.3,119.62,244.35,119.41,244.35z M114.97,237.65l4.6,3.75l4.21-2.17
							l5.32-11.79c0.16-0.42,1.43-3.71,3.14-7.23c0.62-1.28,1.37-2.75,2.19-4.12c-1.48,0.78-3.17,1.77-4.93,3
							C124.67,222.47,118.3,228.41,114.97,237.65z"/>
					</g>
					<g>
						<path class="st0" d="M129.03,240.33c0,0,2.89-11.37,13.23-13.71c0,0-14.91-2.9-23.81,10.81l6.61,3.79L129.03,240.33z"/>
						<path class="st0" d="M125.06,242.57c-0.23,0-0.46-0.06-0.67-0.18l-6.61-3.79c-0.32-0.18-0.55-0.49-0.64-0.85
							c-0.09-0.36-0.02-0.74,0.18-1.05c6.6-10.16,16.33-11.68,21.54-11.68c2.19,0,3.6,0.27,3.66,0.28c0.63,0.12,1.08,0.66,1.09,1.3
							c0.01,0.64-0.43,1.19-1.05,1.33c-9.43,2.13-12.19,12.62-12.22,12.73c-0.12,0.49-0.52,0.87-1.01,0.98l-3.97,0.89
							C125.26,242.56,125.16,242.57,125.06,242.57z M120.38,236.99l4.89,2.8l2.69-0.6c0.69-2.11,2.93-7.77,8.11-11.32
							C131.49,228.4,125.18,230.43,120.38,236.99z"/>
					</g>
				</g>
			</g>
			<g>
				<path class="st6" d="M137.18,249.29c-1.44-10.12-10.07-17.29-19.46-17.29l0,0c-9.39,0-18.03,7.17-19.46,17.29l-2.17,15.28
					c-2.1,14.81,7.4,22.61,21.63,22.61l0,0c14.23,0,23.73-7.8,21.63-22.61L137.18,249.29z"/>
				<path class="st0" d="M117.72,288.52c-8.26,0-14.78-2.48-18.85-7.17c-3.66-4.22-5.09-10.09-4.11-16.97l2.17-15.28
					c1.49-10.52,10.43-18.45,20.8-18.45c10.36,0,19.3,7.93,20.8,18.45l2.17,15.28c0.98,6.88-0.44,12.75-4.11,16.97
					C132.5,286.04,125.98,288.52,117.72,288.52z M117.72,233.34c-9.03,0-16.82,6.94-18.13,16.13l-2.17,15.28
					c-0.88,6.17,0.29,11.16,3.48,14.83c3.54,4.08,9.36,6.24,16.82,6.24c7.46,0,13.28-2.16,16.82-6.24
					c3.18-3.67,4.35-8.66,3.48-14.83l-2.17-15.28C134.55,240.28,126.75,233.34,117.72,233.34z"/>
			</g>
		</g>
		<path class="st0" d="M97.58,255.11c-0.2,0-0.39-0.08-0.54-0.23c-0.3-0.3-0.3-0.79,0-1.09l22.12-22.12c0.3-0.3,0.79-0.3,1.09,0
			c0.3,0.3,0.3,0.79,0,1.09l-22.12,22.12C97.98,255.04,97.78,255.11,97.58,255.11z"/>
		<path class="st0" d="M95.91,270.21c-0.2,0-0.39-0.08-0.54-0.23c-0.3-0.3-0.3-0.79,0-1.09l33.47-33.47c0.3-0.3,0.79-0.3,1.09,0
			c0.3,0.3,0.3,0.79,0,1.09l-33.47,33.47C96.31,270.14,96.11,270.21,95.91,270.21z"/>
		<path class="st0" d="M99.24,280.32c-0.2,0-0.39-0.08-0.54-0.23c-0.3-0.3-0.3-0.79,0-1.09l35.96-35.96c0.3-0.3,0.79-0.3,1.09,0
			c0.3,0.3,0.3,0.79,0,1.09l-35.96,35.96C99.64,280.24,99.44,280.32,99.24,280.32z"/>
		<path class="st0" d="M106.96,286.03c-0.2,0-0.39-0.08-0.54-0.23c-0.3-0.3-0.3-0.79,0-1.09l30.91-30.91c0.3-0.3,0.79-0.3,1.09,0
			c0.3,0.3,0.3,0.79,0,1.09l-30.91,30.91C107.36,285.95,107.16,286.03,106.96,286.03z"/>
		<path class="st0" d="M118.16,288.26c-0.2,0-0.39-0.08-0.54-0.23c-0.3-0.3-0.3-0.79,0-1.09l21.16-21.16c0.3-0.3,0.79-0.3,1.09,0
			c0.3,0.3,0.3,0.79,0,1.09l-21.16,21.16C118.56,288.18,118.36,288.26,118.16,288.26z"/>
		<path class="st0" d="M137.88,255.12c-0.2,0-0.39-0.08-0.54-0.23l-22.29-22.29c-0.3-0.3-0.3-0.79,0-1.09c0.3-0.3,0.79-0.3,1.09,0
			l22.29,22.29c0.3,0.3,0.3,0.79,0,1.09C138.27,255.04,138.07,255.12,137.88,255.12z"/>
		<path class="st0" d="M139.25,269.92c-0.2,0-0.39-0.08-0.54-0.23l-33.33-33.33c-0.3-0.3-0.3-0.79,0-1.09c0.3-0.3,0.79-0.3,1.09,0
			l33.33,33.33c0.3,0.3,0.3,0.79,0,1.09C139.64,269.84,139.45,269.92,139.25,269.92z"/>
		<path class="st0" d="M136.11,280.21c-0.2,0-0.39-0.08-0.54-0.23L99.48,243.9c-0.3-0.3-0.3-0.79,0-1.09c0.3-0.3,0.79-0.3,1.09,0
			l36.09,36.09c0.3,0.3,0.3,0.79,0,1.09C136.5,280.13,136.31,280.21,136.11,280.21z"/>
		<path class="st0" d="M128.45,285.98c-0.2,0-0.39-0.08-0.54-0.23l-30.85-30.85c-0.3-0.3-0.3-0.79,0-1.09c0.3-0.3,0.79-0.3,1.09,0
			L129,284.67c0.3,0.3,0.3,0.79,0,1.09C128.85,285.91,128.65,285.98,128.45,285.98z"/>
		<path class="st0" d="M116.85,287.81c-0.2,0-0.39-0.08-0.54-0.23l-21.02-21.02c-0.3-0.3-0.3-0.79,0-1.09c0.3-0.3,0.79-0.3,1.09,0
			l21.02,21.02c0.3,0.3,0.3,0.79,0,1.09C117.24,287.73,117.04,287.81,116.85,287.81z"/>
	</g>
</g>
<g>
	<path class="st31" d="M226,323.61H8c-3.85,0-7-3.15-7-7v-133c0-3.85,3.15-7,7-7h218c3.85,0,7,3.15,7,7v133
		C233,320.46,229.85,323.61,226,323.61z"/>
	<g>
		<g>
			<g>
				<g>
					<polygon class="st0" points="107.95,238.61 115.4,203.24 127.62,238.8 120.79,243.36 					"/>
					<path class="st0" d="M120.79,244.7c-0.16,0-0.32-0.03-0.47-0.08l-12.83-4.75c-0.62-0.23-0.99-0.88-0.85-1.53l7.45-35.37
						c0.12-0.59,0.63-1.03,1.24-1.06c0.61-0.04,1.17,0.33,1.36,0.91l12.21,35.56c0.2,0.57-0.02,1.2-0.52,1.54l-6.83,4.56
						C121.32,244.62,121.05,244.7,120.79,244.7z M109.51,237.76l11.1,4.11l5.4-3.61l-10.29-29.96L109.51,237.76z"/>
				</g>
				<g>
					<path class="st0" d="M105.06,228.09c0,0-5.31-13.85-9.05-15.4c0,0,19.54,5.98,26.05,25.49l-6.03,4.88l-5.43-2.77L105.06,228.09
						z"/>
					<path class="st0" d="M116.03,244.39c-0.21,0-0.42-0.05-0.62-0.15l-5.43-2.77c-0.27-0.14-0.49-0.36-0.61-0.64l-5.55-12.19
						c-0.01-0.02-0.02-0.05-0.03-0.08c-2.12-5.53-6.1-13.73-8.31-14.64c-0.66-0.28-0.99-1.02-0.75-1.69
						c0.25-0.67,0.98-1.03,1.67-0.82c0.21,0.06,5.15,1.6,10.96,5.61c5.37,3.71,12.5,10.31,15.98,20.74
						c0.18,0.53,0.01,1.11-0.43,1.46l-6.03,4.88C116.64,244.28,116.34,244.39,116.03,244.39z M111.64,239.3l4.22,2.16l4.61-3.73
						c-3.33-9.19-9.73-15.09-14.58-18.46c-1.77-1.23-3.46-2.21-4.95-2.99c0.83,1.37,1.57,2.82,2.2,4.1c1.72,3.5,2.99,6.78,3.15,7.19
						L111.64,239.3z"/>
				</g>
				<g>
					<path class="st0" d="M106.39,240.39c0,0-2.89-11.3-13.27-13.63c0,0,14.96-2.88,23.88,10.75l-6.63,3.77L106.39,240.39z"/>
					<path class="st0" d="M110.37,242.61c-0.1,0-0.2-0.01-0.3-0.03l-3.98-0.89c-0.5-0.11-0.89-0.49-1.01-0.98
						c-0.03-0.1-2.84-10.54-12.26-12.65c-0.62-0.14-1.06-0.69-1.05-1.33c0.01-0.63,0.47-1.17,1.09-1.29
						c0.06-0.01,1.47-0.28,3.67-0.28c5.23,0,14.99,1.51,21.6,11.61c0.2,0.31,0.27,0.69,0.18,1.04c-0.09,0.36-0.32,0.66-0.64,0.85
						l-6.63,3.77C110.83,242.55,110.6,242.61,110.37,242.61z M107.45,239.25l2.7,0.6l4.91-2.79c-4.81-6.53-11.14-8.55-15.74-9.07
						C104.51,231.53,106.76,237.16,107.45,239.25z"/>
				</g>
				<g>
					<g>
						<path class="st0" d="M130.39,228.09c0,0,5.31-13.85,9.05-15.4c0,0-19.54,5.98-26.05,25.49l6.03,4.88l5.43-2.77L130.39,228.09z
							"/>
						<path class="st0" d="M119.41,244.39c-0.3,0-0.61-0.1-0.85-0.3l-6.03-4.88c-0.43-0.35-0.6-0.93-0.43-1.46
							c3.48-10.42,10.61-17.03,15.98-20.74c5.81-4.01,10.75-5.55,10.96-5.61c0.69-0.21,1.42,0.15,1.67,0.82
							c0.25,0.67-0.08,1.42-0.75,1.69c-2.21,0.92-6.19,9.12-8.31,14.64c-0.01,0.03-0.02,0.05-0.03,0.08l-5.55,12.19
							c-0.13,0.28-0.34,0.5-0.61,0.64l-5.43,2.77C119.84,244.34,119.62,244.39,119.41,244.39z M114.97,237.72l4.61,3.73l4.22-2.16
							l5.34-11.73c0.16-0.41,1.44-3.69,3.15-7.19c0.63-1.28,1.37-2.73,2.2-4.1c-1.49,0.77-3.18,1.76-4.95,2.99
							C124.69,222.63,118.3,228.53,114.97,237.72z"/>
					</g>
					<g>
						<path class="st0" d="M129.06,240.39c0,0,2.89-11.3,13.27-13.63c0,0-14.96-2.88-23.88,10.75l6.63,3.77L129.06,240.39z"/>
						<path class="st0" d="M125.08,242.61c-0.23,0-0.47-0.06-0.67-0.18l-6.63-3.77c-0.32-0.18-0.55-0.49-0.64-0.85
							c-0.09-0.36-0.02-0.74,0.18-1.04c6.62-10.1,16.38-11.61,21.6-11.61c2.2,0,3.61,0.27,3.67,0.28c0.63,0.12,1.08,0.66,1.09,1.29
							c0.01,0.63-0.43,1.19-1.05,1.33c-9.46,2.12-12.23,12.55-12.26,12.65c-0.13,0.49-0.52,0.87-1.01,0.98l-3.98,0.89
							C125.28,242.6,125.18,242.61,125.08,242.61z M120.39,237.07l4.91,2.79l2.7-0.6c0.69-2.1,2.94-7.73,8.13-11.25
							C131.53,228.52,125.2,230.54,120.39,237.07z"/>
					</g>
				</g>
			</g>
			<g>
				<path class="st6" d="M137.24,249.29c-1.44-10.06-10.1-17.19-19.52-17.19l0,0c-9.42,0-18.08,7.13-19.52,17.19l-2.17,15.19
					c-2.11,14.72,7.43,22.48,21.69,22.48l0,0c14.27,0,23.8-7.76,21.69-22.48L137.24,249.29z"/>
				<path class="st0" d="M117.72,288.3c-8.29,0-14.83-2.46-18.91-7.13c-3.68-4.2-5.1-10.03-4.12-16.88l2.17-15.19
					c1.5-10.46,10.46-18.34,20.86-18.34c10.39,0,19.36,7.89,20.86,18.34l2.17,15.19c0.98,6.84-0.45,12.68-4.12,16.88
					C132.55,285.84,126.01,288.3,117.72,288.3z M117.72,233.44c-9.06,0-16.87,6.9-18.18,16.04l-2.17,15.19
					c-0.88,6.14,0.29,11.1,3.49,14.75c3.55,4.06,9.39,6.21,16.87,6.21c7.48,0,13.31-2.15,16.87-6.21c3.19-3.65,4.36-8.61,3.49-14.75
					l-2.17-15.19C134.6,240.33,126.78,233.44,117.72,233.44z"/>
			</g>
		</g>
		<path class="st0" d="M97.53,255.09c-0.2,0-0.4-0.07-0.55-0.22c-0.3-0.3-0.3-0.78,0-1.08l22.19-22c0.3-0.3,0.79-0.3,1.09,0
			c0.3,0.3,0.3,0.78,0,1.08l-22.19,22C97.92,255.01,97.72,255.09,97.53,255.09z"/>
		<path class="st0" d="M95.85,270.1c-0.2,0-0.4-0.07-0.55-0.22c-0.3-0.3-0.3-0.78,0-1.08l33.57-33.28c0.3-0.3,0.79-0.3,1.09,0
			c0.3,0.3,0.3,0.78,0,1.08L96.4,269.88C96.25,270.03,96.05,270.1,95.85,270.1z"/>
		<path class="st0" d="M99.19,280.15c-0.2,0-0.4-0.07-0.55-0.22c-0.3-0.3-0.3-0.78,0-1.08l36.07-35.76c0.3-0.3,0.79-0.3,1.09,0
			c0.3,0.3,0.3,0.78,0,1.08l-36.07,35.76C99.59,280.07,99.39,280.15,99.19,280.15z"/>
		<path class="st0" d="M106.93,285.83c-0.2,0-0.4-0.07-0.55-0.22c-0.3-0.3-0.3-0.78,0-1.08l31-30.74c0.3-0.3,0.79-0.3,1.09,0
			c0.3,0.3,0.3,0.78,0,1.08l-31,30.74C107.33,285.75,107.13,285.83,106.93,285.83z"/>
		<path class="st0" d="M118.16,288.05c-0.2,0-0.4-0.07-0.55-0.22c-0.3-0.3-0.3-0.78,0-1.08l21.22-21.04c0.3-0.3,0.79-0.3,1.09,0
			c0.3,0.3,0.3,0.78,0,1.08l-21.22,21.04C118.56,287.97,118.36,288.05,118.16,288.05z"/>
		<path class="st0" d="M137.94,255.09c-0.2,0-0.4-0.07-0.55-0.22l-22.36-22.17c-0.3-0.3-0.3-0.78,0-1.08c0.3-0.3,0.79-0.3,1.09,0
			l22.36,22.17c0.3,0.3,0.3,0.78,0,1.08C138.33,255.01,138.13,255.09,137.94,255.09z"/>
		<path class="st0" d="M139.31,269.81c-0.2,0-0.39-0.07-0.55-0.22l-33.43-33.14c-0.3-0.3-0.3-0.78,0-1.08c0.3-0.3,0.79-0.3,1.09,0
			l33.43,33.14c0.3,0.3,0.3,0.78,0,1.08C139.71,269.73,139.51,269.81,139.31,269.81z"/>
		<path class="st0" d="M136.16,280.04c-0.2,0-0.4-0.07-0.55-0.22l-36.19-35.88c-0.3-0.3-0.3-0.78,0-1.08c0.3-0.3,0.79-0.3,1.09,0
			l36.19,35.88c0.3,0.3,0.3,0.78,0,1.08C136.56,279.96,136.36,280.04,136.16,280.04z"/>
		<path class="st0" d="M128.49,285.78c-0.2,0-0.39-0.07-0.55-0.22L97,254.88c-0.3-0.3-0.3-0.78,0-1.08c0.3-0.3,0.79-0.3,1.09,0
			l30.94,30.68c0.3,0.3,0.3,0.78,0,1.08C128.88,285.71,128.68,285.78,128.49,285.78z"/>
		<path class="st0" d="M116.85,287.6c-0.2,0-0.4-0.07-0.55-0.22l-21.08-20.9c-0.3-0.3-0.3-0.78,0-1.08c0.3-0.3,0.79-0.3,1.09,0
			l21.08,20.9c0.3,0.3,0.3,0.78,0,1.08C117.24,287.52,117.04,287.6,116.85,287.6z"/>
	</g>
</g>
</svg>
